<!DOCTYPE svg PUBLIC "-//W3C//DTD SVG 1.1//EN" "http://www.w3.org/Graphics/SVG/1.1/DTD/svg11.dtd">

<svg fill="#ffffff" height="256px" width="256px" version="1.1" id="Icons" xmlns="http://www.w3.org/2000/svg" xmlns:xlink="http://www.w3.org/1999/xlink" viewBox="-8.32 -8.32 48.64 48.64" xml:space="preserve" transform="matrix(1, 0, 0, 1, 0, 0)" stroke="#ffffff" stroke-width="0.22400000000000003">

<g id="SVGRepo_bgCarrier" stroke-width="0" transform="translate(6.720000000000001,6.720000000000001), scale(0.58)">

<path transform="translate(-8.32, -8.32), scale(1.52)" d="M16,31.12696290974106C18.37849545065431,31.160285820789113,20.35625520434295,29.268515848919783,22.13484255842127,27.688965897478976C23.68644159874043,26.31100254742369,24.518755917232745,24.39623489927869,25.58408083335295,22.615413347548024C26.586980615097094,20.938943081499698,27.683843878627684,19.359186824402823,28.238460544061585,17.486018150847347C28.85907188924677,15.389958290575155,29.670547383910964,13.150205691269585,29.002901290832657,11.06865000524672C28.331254960708723,8.974622567716441,26.519782810488206,7.3863083400250655,24.635419654991082,6.252626197577941C22.881188351049506,5.1972347794223275,20.60678293613464,5.728051004275507,18.737673804104666,4.892820757093784C16.348946715675233,3.8253939908718735,14.781791593500316,0.12634216514487684,12.23128263580058,0.7097125971492222C9.701709722078697,1.2882943892301717,9.941575879961906,5.292518515471987,8.279154636765963,7.284967166286828C6.9260087547299465,8.906742452215692,4.651968361016857,9.504848801923297,3.4461093018654534,11.238937261484448C2.085365698756594,13.195757804204659,0.8541017901570497,15.446063224422723,0.9479298691389051,17.827652206889695C1.0431145389740577,20.24367482441546,2.314992421431408,22.538812862535238,3.9610684064622,24.30987448237589C5.526566308740171,25.994239770417984,7.953716010345799,26.38524646316624,9.954718588685557,27.518321388789207C12.026966314314421,28.691739135975443,13.61882236622657,31.093602421093493,16,31.12696290974106" fill="#0033ff" strokewidth="0"/>

</g>

<g id="SVGRepo_tracerCarrier" stroke-linecap="round" stroke-linejoin="round" stroke="#CCCCCC" stroke-width="0.32"/>

<g id="SVGRepo_iconCarrier"> <g> <path d="M4,13c-0.6,0-1,0.4-1,1v4c0,0.6,0.4,1,1,1s1-0.4,1-1v-4C5,13.4,4.6,13,4,13z"/> <path d="M8,11c-0.6,0-1,0.4-1,1v8c0,0.6,0.4,1,1,1s1-0.4,1-1v-8C9,11.4,8.6,11,8,11z"/> <path d="M12,6c-0.6,0-1,0.4-1,1v18c0,0.6,0.4,1,1,1s1-0.4,1-1V7C13,6.4,12.6,6,12,6z"/> <path d="M16,13c-0.6,0-1,0.4-1,1v4c0,0.6,0.4,1,1,1s1-0.4,1-1v-4C17,13.4,16.6,13,16,13z"/> <path d="M20,9c-0.6,0-1,0.4-1,1v12c0,0.6,0.4,1,1,1s1-0.4,1-1V10C21,9.4,20.6,9,20,9z"/> <path d="M24,6c-0.6,0-1,0.4-1,1v18c0,0.6,0.4,1,1,1s1-0.4,1-1V7C25,6.4,24.6,6,24,6z"/> <path d="M28,13c-0.6,0-1,0.4-1,1v4c0,0.6,0.4,1,1,1s1-0.4,1-1v-4C29,13.4,28.6,13,28,13z"/> </g> </g>

</svg>